# xmcd CD database file
#
# Track frame offsets:
#	150
#	14286
#	28948
#	39898
#	44814
#	68492
#	79572
#	86962
#	104245
#	121215
#	131758
#	151874
#	167749
#	181549
#
# Disc length: 2629 seconds
#
# Revision: 0
# Processed by: cddbd v1.5.1PL0 Copyright (c) Steve Scherf et al.
# Submitted via: CDex 1.51
#
DISCID=b10a430e
DTITLE=가제오 메그르 - 음악의 허브
DYEAR=1900
DGENRE=New Age
TTITLE0=로만체로(Romanzero) - 그대와 나란히 들판에 서면
TTITLE1=화도(火島)의 노래
TTITLE2=봄 바람의 노래
TTITLE3=토끼풀과 아침이슬의 노래
TTITLE4=사과나무의 노래 <싹틈>, <어린 나무>, <꽃>
TTITLE5=포라노의 광장
TTITLE6=목가(牧歌)
TTITLE7=종산초원
TTITLE8=정신(精神)의 노래
TTITLE9=달빛의 치유의 노래
TTITLE10=포라노의 광장 2
TTITLE11=눈이 녹는 노래
TTITLE12=리라의 울림
TTITLE13=눈이 녹는 노래(피아노 반주)
EXTD=
EXTT0=
EXTT1=
EXTT2=
EXTT3=
EXTT4=
EXTT5=
EXTT6=
EXTT7=
EXTT8=
EXTT9=
EXTT10=
EXTT11=
EXTT12=
EXTT13=
PLAYORDER=
